<svg xmlns="http://www.w3.org/2000/svg" xmlns:xlink="http://www.w3.org/1999/xlink" width="270" zoomAndPan="magnify" viewBox="0 0 202.5 121.500001" height="162" preserveAspectRatio="xMidYMid meet" version="1.0"><defs><g/></defs><path stroke-linecap="butt" transform="matrix(0.746926, 0, 0, 0.746926, 24.335065, 20.169476)" fill="none" stroke-linejoin="miter" d="M 69.29558 58.220978 L 47.283491 58.220978 L 47.283491 51.945257 L 76.48651 51.945257 L 76.48651 82.999614 L 71.821558 82.999614 L 70.603022 68.230752 C 68.824901 73.136273 65.760258 76.948773 61.419551 79.673482 C 57.084075 82.40342 51.964133 83.76316 46.049266 83.76316 C 40.035034 83.76316 34.873254 82.63353 30.569156 80.369041 C 26.259828 78.088863 22.944156 74.877786 20.61168 70.73058 C 18.300123 66.572916 17.139114 61.709232 17.139114 56.14476 L 17.139114 54.016245 C 17.139114 48.404705 18.310582 43.535792 20.653518 39.414736 C 23.006913 35.28322 26.43241 32.082602 30.940469 29.818113 C 35.458988 27.537935 40.929324 26.397846 47.356708 26.397846 C 53.418008 26.397846 58.475193 27.318285 62.517802 29.164392 C 66.576102 30.989581 69.740111 33.390044 72.0046 36.350092 C 74.284778 39.299681 75.728194 42.484609 76.340077 45.894417 L 68.924267 45.894417 C 68.41175 43.504414 67.344877 41.302682 65.71319 39.283992 C 64.081503 37.265301 61.759486 35.659763 58.74714 34.467376 C 55.734795 33.26976 51.911835 32.673566 47.283491 32.673566 C 39.836303 32.673566 34.156776 34.556282 30.25014 38.332174 C 26.353964 42.102836 24.403261 47.358752 24.403261 54.094692 L 24.403261 56.071544 C 24.403261 62.807483 26.343504 68.058169 30.213532 71.834061 C 34.099249 75.604723 39.705559 77.492669 47.037692 77.492669 C 53.972363 77.492669 59.291036 75.772076 62.988481 72.336119 C 66.685927 68.889702 68.788293 64.182912 69.29558 58.220978 Z M 83.44733 27.161392 L 113.884574 27.161392 C 120.667581 27.161392 125.729996 28.646646 129.066587 31.606694 C 132.413638 34.556282 134.092393 38.358323 134.092393 42.997126 C 134.092393 46.06177 133.349766 48.776019 131.869742 51.139873 C 130.384489 53.508958 128.151378 55.381214 125.165181 56.761873 C 122.189444 58.142531 118.429241 58.832861 113.884574 58.832861 L 90.63303 58.832861 L 90.63303 82.999614 L 83.44733 82.999614 Z M 90.63303 52.56237 L 113.586477 52.56237 C 118.376944 52.56237 121.797211 51.709918 123.83682 50.005014 C 125.881659 48.284421 126.901464 45.951944 126.901464 42.997126 C 126.901464 40.037078 125.881659 37.704602 123.83682 35.994468 C 121.797211 34.289564 118.376944 33.437112 113.586477 33.437112 L 90.63303 33.437112 Z M 158.40558 33.437112 L 134.688587 33.437112 L 134.688587 27.161392 L 189.313503 27.161392 L 189.313503 33.437112 L 165.59651 33.437112 L 165.59651 82.999614 L 158.40558 82.999614 Z M 158.40558 33.437112 " stroke="#000000" stroke-width="1.912415" stroke-opacity="1" stroke-miterlimit="4"/><g fill="#000000" fill-opacity="1"><g transform="translate(34.27852, 82.164351)"><g><path d="M 41.8125 -18.515625 L 25.359375 -18.515625 L 25.359375 -23.1875 L 47.1875 -23.1875 L 47.1875 0 L 43.703125 0 L 42.78125 -11.03125 C 41.445312 -7.375 39.160156 -4.523438 35.921875 -2.484375 C 32.691406 -0.441406 28.867188 0.578125 24.453125 0.578125 C 19.953125 0.578125 16.09375 -0.269531 12.875 -1.96875 C 9.65625 -3.664062 7.179688 -6.066406 5.453125 -9.171875 C 3.722656 -12.273438 2.859375 -15.898438 2.859375 -20.046875 L 2.859375 -21.65625 C 2.859375 -25.84375 3.734375 -29.476562 5.484375 -32.5625 C 7.234375 -35.644531 9.789062 -38.03125 13.15625 -39.71875 C 16.53125 -41.414062 20.617188 -42.265625 25.421875 -42.265625 C 29.953125 -42.265625 33.726562 -41.578125 36.75 -40.203125 C 39.78125 -38.835938 42.144531 -37.050781 43.84375 -34.84375 C 45.539062 -32.632812 46.617188 -30.253906 47.078125 -27.703125 L 41.53125 -27.703125 C 41.144531 -29.492188 40.34375 -31.140625 39.125 -32.640625 C 37.90625 -34.148438 36.171875 -35.351562 33.921875 -36.25 C 31.679688 -37.144531 28.828125 -37.59375 25.359375 -37.59375 C 19.796875 -37.59375 15.554688 -36.179688 12.640625 -33.359375 C 9.734375 -30.546875 8.28125 -26.625 8.28125 -21.59375 L 8.28125 -20.109375 C 8.28125 -15.078125 9.726562 -11.148438 12.625 -8.328125 C 15.519531 -5.515625 19.707031 -4.109375 25.1875 -4.109375 C 30.375 -4.109375 34.347656 -5.394531 37.109375 -7.96875 C 39.867188 -10.539062 41.4375 -14.054688 41.8125 -18.515625 Z M 41.8125 -18.515625 "/></g></g></g><g fill="#000000" fill-opacity="1"><g transform="translate(81.808664, 82.164351)"><g><path d="M 4.859375 -41.703125 L 27.59375 -41.703125 C 32.65625 -41.703125 36.429688 -40.597656 38.921875 -38.390625 C 41.421875 -36.179688 42.671875 -33.34375 42.671875 -29.875 C 42.671875 -27.59375 42.117188 -25.566406 41.015625 -23.796875 C 39.910156 -22.023438 38.242188 -20.625 36.015625 -19.59375 C 33.785156 -18.5625 30.976562 -18.046875 27.59375 -18.046875 L 10.21875 -18.046875 L 10.21875 0 L 4.859375 0 Z M 10.21875 -22.734375 L 27.359375 -22.734375 C 30.941406 -22.734375 33.492188 -23.367188 35.015625 -24.640625 C 36.535156 -25.921875 37.296875 -27.664062 37.296875 -29.875 C 37.296875 -32.082031 36.535156 -33.820312 35.015625 -35.09375 C 33.492188 -36.375 30.941406 -37.015625 27.359375 -37.015625 L 10.21875 -37.015625 Z M 10.21875 -22.734375 "/></g></g></g><g fill="#000000" fill-opacity="1"><g transform="translate(123.054705, 82.164351)"><g><path d="M 19.59375 -37.015625 L 1.890625 -37.015625 L 1.890625 -41.703125 L 42.671875 -41.703125 L 42.671875 -37.015625 L 24.96875 -37.015625 L 24.96875 0 L 19.59375 0 Z M 19.59375 -37.015625 "/></g></g></g><path fill="#f6f6f6" d="M 112.472656 67.632812 L 183.457031 67.632812 L 183.457031 77.507812 L 112.472656 77.507812 L 112.472656 67.632812 " fill-opacity="1" fill-rule="nonzero"/><g fill="#000000" fill-opacity="1"><g transform="translate(115.25967, 74.602953)"><g><path d="M 4.90625 0.28125 L 4.90625 1.421875 L 0.59375 1.421875 L 0.59375 0.28125 Z M 4.90625 0.28125 "/></g></g></g><g fill="#000000" fill-opacity="1"><g transform="translate(126.274397, 74.602953)"><g><path d="M 1.625 -0.921875 L 3.1875 -0.921875 L 3.1875 0 L 0.4375 0 L 0.4375 -4.890625 L 1.625 -4.890625 Z M 1.625 -0.921875 "/></g></g></g><g fill="#000000" fill-opacity="1"><g transform="translate(135.176802, 74.602953)"><g><path d="M 2.75 0.046875 C 2.289062 0.046875 1.867188 -0.0546875 1.484375 -0.265625 C 1.097656 -0.484375 0.789062 -0.78125 0.5625 -1.15625 C 0.34375 -1.539062 0.234375 -1.972656 0.234375 -2.453125 C 0.234375 -2.929688 0.34375 -3.363281 0.5625 -3.75 C 0.789062 -4.132812 1.097656 -4.429688 1.484375 -4.640625 C 1.867188 -4.859375 2.289062 -4.96875 2.75 -4.96875 C 3.207031 -4.96875 3.625 -4.859375 4 -4.640625 C 4.382812 -4.429688 4.6875 -4.132812 4.90625 -3.75 C 5.132812 -3.363281 5.25 -2.929688 5.25 -2.453125 C 5.25 -1.972656 5.132812 -1.539062 4.90625 -1.15625 C 4.6875 -0.78125 4.382812 -0.484375 4 -0.265625 C 3.625 -0.0546875 3.207031 0.046875 2.75 0.046875 Z M 2.75 -1.03125 C 3.132812 -1.03125 3.441406 -1.160156 3.671875 -1.421875 C 3.910156 -1.679688 4.03125 -2.023438 4.03125 -2.453125 C 4.03125 -2.890625 3.910156 -3.234375 3.671875 -3.484375 C 3.441406 -3.742188 3.132812 -3.875 2.75 -3.875 C 2.351562 -3.875 2.035156 -3.742188 1.796875 -3.484375 C 1.566406 -3.234375 1.453125 -2.890625 1.453125 -2.453125 C 1.453125 -2.023438 1.566406 -1.679688 1.796875 -1.421875 C 2.035156 -1.160156 2.351562 -1.03125 2.75 -1.03125 Z M 2.75 -1.03125 "/></g></g></g><g fill="#000000" fill-opacity="1"><g transform="translate(146.233361, 74.602953)"><g><path d="M 5.03125 -4.890625 L 3.296875 0 L 1.796875 0 L 0.0625 -4.890625 L 1.328125 -4.890625 L 2.546875 -1.203125 L 3.765625 -4.890625 Z M 5.03125 -4.890625 "/></g></g></g><g fill="#000000" fill-opacity="1"><g transform="translate(156.899516, 74.602953)"><g><path d="M 1.625 -3.9375 L 1.625 -2.953125 L 3.21875 -2.953125 L 3.21875 -2.03125 L 1.625 -2.03125 L 1.625 -0.953125 L 3.421875 -0.953125 L 3.421875 0 L 0.4375 0 L 0.4375 -4.890625 L 3.421875 -4.890625 L 3.421875 -3.9375 Z M 1.625 -3.9375 "/></g></g></g><g fill="#000000" fill-opacity="1"><g transform="translate(166.248088, 74.602953)"><g><path d="M 2.921875 0 L 1.90625 -1.84375 L 1.625 -1.84375 L 1.625 0 L 0.4375 0 L 0.4375 -4.890625 L 2.4375 -4.890625 C 2.820312 -4.890625 3.148438 -4.820312 3.421875 -4.6875 C 3.691406 -4.550781 3.894531 -4.363281 4.03125 -4.125 C 4.164062 -3.894531 4.234375 -3.640625 4.234375 -3.359375 C 4.234375 -3.023438 4.140625 -2.726562 3.953125 -2.46875 C 3.765625 -2.21875 3.492188 -2.039062 3.140625 -1.9375 L 4.265625 0 Z M 1.625 -2.6875 L 2.359375 -2.6875 C 2.578125 -2.6875 2.738281 -2.738281 2.84375 -2.84375 C 2.957031 -2.957031 3.015625 -3.109375 3.015625 -3.296875 C 3.015625 -3.484375 2.957031 -3.628906 2.84375 -3.734375 C 2.738281 -3.847656 2.578125 -3.90625 2.359375 -3.90625 L 1.625 -3.90625 Z M 1.625 -2.6875 "/></g></g></g><g fill="#000000" fill-opacity="1"><g transform="translate(176.370478, 74.602953)"><g><path d="M 2.203125 0.046875 C 1.847656 0.046875 1.523438 -0.0078125 1.234375 -0.125 C 0.953125 -0.238281 0.726562 -0.410156 0.5625 -0.640625 C 0.394531 -0.867188 0.304688 -1.144531 0.296875 -1.46875 L 1.5625 -1.46875 C 1.582031 -1.28125 1.644531 -1.140625 1.75 -1.046875 C 1.851562 -0.953125 1.992188 -0.90625 2.171875 -0.90625 C 2.347656 -0.90625 2.484375 -0.945312 2.578125 -1.03125 C 2.679688 -1.113281 2.734375 -1.222656 2.734375 -1.359375 C 2.734375 -1.484375 2.691406 -1.582031 2.609375 -1.65625 C 2.535156 -1.738281 2.4375 -1.804688 2.3125 -1.859375 C 2.195312 -1.910156 2.03125 -1.96875 1.8125 -2.03125 C 1.5 -2.132812 1.238281 -2.234375 1.03125 -2.328125 C 0.832031 -2.421875 0.660156 -2.5625 0.515625 -2.75 C 0.378906 -2.945312 0.3125 -3.195312 0.3125 -3.5 C 0.3125 -3.957031 0.472656 -4.316406 0.796875 -4.578125 C 1.128906 -4.835938 1.5625 -4.96875 2.09375 -4.96875 C 2.632812 -4.96875 3.066406 -4.835938 3.390625 -4.578125 C 3.722656 -4.316406 3.898438 -3.957031 3.921875 -3.5 L 2.640625 -3.5 C 2.628906 -3.65625 2.566406 -3.773438 2.453125 -3.859375 C 2.347656 -3.953125 2.210938 -4 2.046875 -4 C 1.898438 -4 1.78125 -3.960938 1.6875 -3.890625 C 1.601562 -3.816406 1.5625 -3.707031 1.5625 -3.5625 C 1.5625 -3.40625 1.632812 -3.28125 1.78125 -3.1875 C 1.9375 -3.101562 2.171875 -3.007812 2.484375 -2.90625 C 2.804688 -2.800781 3.0625 -2.695312 3.25 -2.59375 C 3.445312 -2.5 3.617188 -2.359375 3.765625 -2.171875 C 3.910156 -1.984375 3.984375 -1.742188 3.984375 -1.453125 C 3.984375 -1.171875 3.910156 -0.914062 3.765625 -0.6875 C 3.628906 -0.46875 3.425781 -0.289062 3.15625 -0.15625 C 2.882812 -0.0195312 2.566406 0.046875 2.203125 0.046875 Z M 2.203125 0.046875 "/></g></g></g></svg>